<?xml version="1.0" encoding="utf-8"?>
<!-- Generator: Adobe Illustrator 21.1.0, SVG Export Plug-In . SVG Version: 6.00 Build 0)  -->
<svg version="1.1" id="Layer_1" xmlns="http://www.w3.org/2000/svg" xmlns:xlink="http://www.w3.org/1999/xlink" x="0px" y="0px"
	 viewBox="0 0 55 55" style="enable-background:new 0 0 55 55;" xml:space="preserve">
<style type="text/css">
	.st0{fill:#FF953D;}
</style>
<polygon class="st0" points="51.4,17.3 38.9,4.8 35.9,11.7 44.3,20.1 "/>
<polygon class="st0" points="21.5,45.1 18.5,52.2 36.2,52.2 33.4,45.1 "/>
<polygon class="st0" points="22,10.7 33.9,10.7 36.9,3.7 19.2,3.7 "/>
<polygon class="st0" points="35.5,44.5 38.4,51.6 50.9,39.1 43.9,36.1 "/>
<polygon class="st0" points="11.2,35.7 4,38.6 16.6,51.1 19.6,44.1 "/>
<polygon class="st0" points="10.5,21.7 3.4,18.7 3.4,36.4 10.5,33.6 "/>
<polygon class="st0" points="19.9,11.4 17.1,4.2 4.5,16.8 11.5,19.8 "/>
<polygon class="st0" points="44.9,34.1 52,37.2 52,19.4 44.9,22.3 "/>
<polygon class="st0" points="33.9,42.9 42.7,34.1 42.7,21.7 33.9,12.9 21.5,12.9 12.7,21.7 12.7,34.1 21.5,42.9 "/>
</svg>
