<?xml version="1.0" encoding="utf-8"?>
<!-- Generator: Adobe Illustrator 21.1.0, SVG Export Plug-In . SVG Version: 6.00 Build 0)  -->
<svg version="1.1" id="Layer_1" xmlns="http://www.w3.org/2000/svg" xmlns:xlink="http://www.w3.org/1999/xlink" x="0px" y="0px"
	 viewBox="0 0 55 55" style="enable-background:new 0 0 55 55;" xml:space="preserve">
<style type="text/css">
	.st0{fill:#E75B55;}
	.st1{fill:#E00001;}
	.st2{fill:#539CEE;}
	.st3{fill:#FF8A2B;}
	.st4{fill:#7EABDE;}
	.st5{fill:#FFA637;}
</style>
<path class="st0" d="M35.9,23.5l-0.7-8.7c0-0.1-0.1-0.2-0.2-0.2c-0.1,0-0.2,0-0.2,0.1l-10.1,8.8c-0.1,0.1-0.1,0.2-0.1,0.2l6.2,27.1
	c0,0.1,0.1,0.2,0.2,0.2h0.1c0.1,0,0.2,0,0.2-0.1l2.7-2.6c0-0.1,0-0.2,0-0.3s-0.1-0.2-0.1-0.2c-0.2-0.2-0.4-0.4-0.4-0.7l-0.1-21
	c0.2-0.3,1.5-1.6,2.4-2.4C35.8,23.7,35.9,23.6,35.9,23.5L35.9,23.5z"/>
<path class="st1" d="M21.7,5.7c-0.1-0.1-0.2,0-0.2,0c-0.1,0.1-0.1,0.2-0.1,0.2l2.8,15.2c0,0.1,0.1,0.2,0.2,0.2h0.1
	c0.1,0,0.1,0,0.2-0.1l1.2-1.1c2.4-2.1,7.6-6.6,8.8-7.8c0.1-0.1,0.1-0.2,0.1-0.2c0-0.1-0.1-0.2-0.2-0.2L21.7,5.7z"/>
<path class="st1" d="M9.9,18.3c0,0.1,0.1,0.2,0.2,0.2L22.2,22h0.1c0.1,0,0.2,0,0.2-0.1c0.1-0.1,0.1-0.2,0.1-0.2L19.7,6.4
	c0-0.1-0.1-0.2-0.2-0.2s-0.2,0-0.2,0.1L9.9,18.1C9.9,18.2,9.8,18.2,9.9,18.3L9.9,18.3z"/>
<path class="st2" d="M3.6,25c0,0,0,0,0,0.1l-1.1,7.8c0,0.1,0,0.2,0.1,0.2c0.1,0.1,0.1,0.1,0.2,0.1h0.1c1.9-0.3,5.8-1.1,9.9-2.1
	c0.1,0,0.2-0.1,0.2-0.2v-0.2l-2.3-4.9c0-0.1-0.1-0.2-0.2-0.2l-6.6-0.9C3.7,24.9,3.6,24.9,3.6,25L3.6,25z"/>
<path class="st3" d="M53.9,26.6c0.1-0.1,0.1-0.1,0.1-0.2s0-0.2-0.1-0.2l-8-8.4c-0.1-0.1-0.2-0.1-0.3,0l-9.7,8
	c-0.1,0.1-0.1,0.1-0.1,0.2s0,0.2,0.1,0.2l8.5,6.9c0.1,0,0.1,0.1,0.2,0.1c0.1,0,0.1,0,0.2-0.1c1.1-0.7,4-2.8,8.5-6.1L53.9,26.6z"/>
<path class="st4" d="M14,46.9c0.1,0.1,0.1,0.1,0.2,0.1h0.1c0,0,5-1.3,5.1-1.3s0.2-0.1,0.2-0.2v-0.2l-5.8-12.4
	c-0.1-0.1-0.2-0.2-0.3-0.2c-2,0.5-6.9,1.5-9.9,2.1c-0.1,0-0.2,0.1-0.2,0.2c0,0.1,0,0.2,0.1,0.2L14,46.9z"/>
<path class="st5" d="M35.3,46.8l4.8,2.9h0.2h0.1c0.1,0,0.2-0.1,0.2-0.2c0.6-2.4,1.8-8.3,3-14.8c0-0.1,0-0.2-0.1-0.2l-7.9-6.3
	c-0.1-0.1-0.2-0.1-0.2,0c-0.1,0.1-0.2,0.2-0.2,0.2L35.3,46.8C35.2,46.6,35.3,46.7,35.3,46.8L35.3,46.8z"/>
<path class="st0" d="M23.3,49l5.6,2.2H29c0.1,0,0.1,0,0.2-0.1s0.1-0.2,0.1-0.2L23,24c0-0.1-0.1-0.2-0.2-0.2l-12.6-3.6
	c-0.1,0-0.2,0-0.2,0.1c-0.1,0.1-0.1,0.2,0,0.2l13.1,28.1C23.1,48.9,23.2,49,23.3,49L23.3,49z"/>
<path class="st5" d="M42.8,48.2c0.1,0,0.2,0,0.2-0.1l3.6-3.2l0.1-0.1l6.3-15c0.1-0.1,0-0.2-0.1-0.3c-0.1-0.1-0.2-0.1-0.3,0
	c-4.2,3.1-6.5,4.6-7.4,5.2c-0.1,0-0.1,0.1-0.1,0.2c-0.5,2.5-1.6,8.8-2.6,13c0,0.1,0,0.2,0.1,0.2C42.7,48.2,42.8,48.2,42.8,48.2
	L42.8,48.2z"/>
</svg>
