<?xml version="1.0" encoding="utf-8"?>
<!-- Generator: Adobe Illustrator 21.1.0, SVG Export Plug-In . SVG Version: 6.00 Build 0)  -->
<svg version="1.1" id="Layer_1" xmlns="http://www.w3.org/2000/svg" xmlns:xlink="http://www.w3.org/1999/xlink" x="0px" y="0px"
	 viewBox="0 0 55 55" style="enable-background:new 0 0 55 55;" xml:space="preserve">
<style type="text/css">
	.st0{fill:#4590EE;}
	.st1{fill:#71A0DC;}
</style>
<path class="st0" d="M25,53.8C25.1,53.8,25.1,53.8,25,53.8C25.1,53.8,25.1,53.8,25,53.8z M24.9,53.8C25,53.8,25,53.8,24.9,53.8
	C25,53.8,25,53.8,24.9,53.8z M24.8,53.8c0.1,0,0.1,0,0.2,0.1C24.9,53.8,24.8,53.8,24.8,53.8z M18.1,26.9L25.2,50l9.4-23.1H18.1z
	 M26.4,12.3l-7.9,12.6h15.8L26.4,12.3z M24.6,53.7L24.6,53.7L24.6,53.7z M24.5,53.6C24.5,53.6,24.6,53.6,24.5,53.6
	C24.6,53.7,24.5,53.6,24.5,53.6z M24.4,53.5C24.5,53.6,24.5,53.6,24.4,53.5C24.5,53.6,24.5,53.6,24.4,53.5z M24.3,53.4L24.3,53.4
	c0.1,0.1,0.1,0.1,0.1,0.1S24.4,53.5,24.3,53.4L24.3,53.4z"/>
<path class="st1" d="M40.8,7.6c0.5,0,1-0.4,0.9-1V2.8c0-0.3-0.1-0.5-0.3-0.7S41,1.8,40.7,1.8S40.2,1.9,40,2.1s-0.3,0.4-0.3,0.7v3.8
	c0,0.3,0.1,0.5,0.3,0.7C40.3,7.5,40.6,7.6,40.8,7.6L40.8,7.6z"/>
<path class="st1" d="M42.7,5.7c0.3,0,0.5-0.1,0.7-0.3c0.2-0.2,0.3-0.4,0.3-0.7S43.6,4.2,43.4,4c-0.2-0.2-0.4-0.3-0.7-0.3h-3.8
	c-0.3,0-0.5,0.1-0.7,0.3c-0.2,0.2-0.3,0.4-0.3,0.7s0.1,0.5,0.3,0.7s0.4,0.3,0.7,0.3H42.7z"/>
<path class="st1" d="M49.5,13.4c0.5,0,1-0.4,0.9-1V8.6c0-0.3-0.1-0.5-0.3-0.7s-0.4-0.3-0.7-0.3s-0.5,0.1-0.7,0.3
	c-0.2,0.2-0.3,0.4-0.3,0.7v3.8c0,0.3,0.1,0.5,0.3,0.7C49,13.3,49.3,13.4,49.5,13.4L49.5,13.4z"/>
<path class="st1" d="M51.4,11.5c0.3,0,0.5-0.1,0.7-0.3s0.3-0.4,0.3-0.7s-0.1-0.5-0.3-0.7s-0.4-0.3-0.7-0.3h-3.8
	c-0.3,0-0.5,0.1-0.7,0.3s-0.3,0.4-0.3,0.7s0.1,0.5,0.3,0.7s0.4,0.3,0.7,0.3H51.4z"/>
<path class="st0" d="M16.8,9.5c-0.2,0-0.5,0.1-0.7,0.3L2.6,22.3c-0.4,0.3-0.4,0.9-0.1,1.3l21.8,29.8c-0.1-0.1-0.1-0.2-0.1-0.3
	L16,26.7l-8.3-1.8c-1.3-0.3-0.9-2.2,0.4-1.9l8.2,1.8l9.4-15.3L16.8,9.5z"/>
<path class="st0" d="M50.1,23.7l-13.4,3L26,53.2c0,0.1-0.1,0.1-0.1,0.2L50.1,23.7z"/>
<path class="st0" d="M26.9,9.5l9.5,15.3c4.4-0.9,13.3-2.8,13.3-2.8l-13-12.2c-0.2-0.2-0.4-0.3-0.7-0.3H26.9z"/>
</svg>
